ISO-10303-21;
HEADER;
FILE_DESCRIPTION(('STEP AP242'),'1');
FILE_NAME('p70-2100045r.stp','2023-09-26T10:09:07',('TraceParts'),('TraceParts S.A.'),'Spatial InterOp 3D',' ',' ');
FILE_SCHEMA(('AP242_MANAGED_MODEL_BASED_3D_ENGINEERING_MIM_LF  {1 0 10303 442 1 1 4}'));
ENDSEC;
DATA;
#1=MECHANICAL_DESIGN_GEOMETRIC_PRESENTATION_REPRESENTATION(' ',(#10),#6);
#2=PRODUCT_DEFINITION_CONTEXT('',#11,'design');
#3=APPLICATION_PROTOCOL_DEFINITION('INTERNATIONAL STANDARD','ap242_managed_model_based_3d_engineering',2014,#11);
#4=PRODUCT_CATEGORY_RELATIONSHIP('NONE','NONE',#12,#13);
#5=SHAPE_DEFINITION_REPRESENTATION(#14,#15);
#6= (GEOMETRIC_REPRESENTATION_CONTEXT(3)GLOBAL_UNCERTAINTY_ASSIGNED_CONTEXT((#18))GLOBAL_UNIT_ASSIGNED_CONTEXT((#20,#21,#22))REPRESENTATION_CONTEXT('NONE','WORKSPACE'));
#10=STYLED_ITEM('',(#24),#25);
#11=APPLICATION_CONTEXT('managed model based 3d engineering');
#12=PRODUCT_CATEGORY('part','NONE');
#13=PRODUCT_RELATED_PRODUCT_CATEGORY('detail',' ',(#26));
#14=PRODUCT_DEFINITION_SHAPE('NONE','NONE',#27);
#15=ADVANCED_BREP_SHAPE_REPRESENTATION('p70-2100045r',(#25,#28),#6);
#18=UNCERTAINTY_MEASURE_WITH_UNIT(LENGTH_MEASURE(1.0E-06),#20,'','');
#20= (CONVERSION_BASED_UNIT('MILLIMETRE',#31)LENGTH_UNIT()NAMED_UNIT(#34));
#21= (NAMED_UNIT(#36)PLANE_ANGLE_UNIT()SI_UNIT($,.RADIAN.));
#22= (NAMED_UNIT(#36)SOLID_ANGLE_UNIT()SI_UNIT($,.STERADIAN.));
#24=PRESENTATION_STYLE_ASSIGNMENT((#42));
#25=MANIFOLD_SOLID_BREP('p70-2100045r',#43);
#26=PRODUCT('p70-2100045r','','PART--DESC',(#44));
#27=PRODUCT_DEFINITION('','NONE',#45,#2);
#28=AXIS2_PLACEMENT_3D('',#46,#47,#48);
#31=LENGTH_MEASURE_WITH_UNIT(LENGTH_MEASURE(1.0),#49);
#34=DIMENSIONAL_EXPONENTS(1.0,0.0,0.0,0.0,0.0,0.0,0.0);
#36=DIMENSIONAL_EXPONENTS(0.0,0.0,0.0,0.0,0.0,0.0,0.0);
#42=SURFACE_STYLE_USAGE(.BOTH.,#50);
#43=CLOSED_SHELL('',(#51,#52,#53,#54,#55,#56,#57,#58,#59,#60,#61,#62,#63,#64,#65,#66,#67,#68,#69,#70,#71,#72,#73,#74,#75));
#44=PRODUCT_CONTEXT('',#11,'mechanical');
#45=PRODUCT_DEFINITION_FORMATION_WITH_SPECIFIED_SOURCE(' ','NONE',#26,.NOT_KNOWN.);
#46=CARTESIAN_POINT('',(0.0,0.0,0.0));
#47=DIRECTION('',(0.0,0.0,1.0));
#48=DIRECTION('',(1.0,0.0,0.0));
#49= (NAMED_UNIT(#34)LENGTH_UNIT()SI_UNIT(.MILLI.,.METRE.));
#50=SURFACE_SIDE_STYLE('',(#77));
#51=ADVANCED_FACE('',(#78),#79,.T.);
#52=ADVANCED_FACE('',(#80),#81,.T.);
#53=ADVANCED_FACE('',(#82),#83,.T.);
#54=ADVANCED_FACE('',(#84),#85,.T.);
#55=ADVANCED_FACE('',(#86),#87,.T.);
#56=ADVANCED_FACE('',(#88),#89,.T.);
#57=ADVANCED_FACE('',(#90),#91,.T.);
#58=ADVANCED_FACE('',(#92),#93,.T.);
#59=ADVANCED_FACE('',(#94),#95,.T.);
#60=ADVANCED_FACE('',(#96),#97,.T.);
#61=ADVANCED_FACE('',(#98,#99),#100,.F.);
#62=ADVANCED_FACE('',(#101),#102,.T.);
#63=ADVANCED_FACE('',(#103),#104,.T.);
#64=ADVANCED_FACE('',(#105),#106,.F.);
#65=ADVANCED_FACE('',(#107),#108,.T.);
#66=ADVANCED_FACE('',(#109),#110,.T.);
#67=ADVANCED_FACE('',(#111,#112),#113,.T.);
#68=ADVANCED_FACE('',(#114),#115,.T.);
#69=ADVANCED_FACE('',(#116,#117),#118,.F.);
#70=ADVANCED_FACE('',(#119),#120,.T.);
#71=ADVANCED_FACE('',(#121),#122,.T.);
#72=ADVANCED_FACE('',(#123),#124,.T.);
#73=ADVANCED_FACE('',(#125,#126),#127,.T.);
#74=ADVANCED_FACE('',(#128),#129,.T.);
#75=ADVANCED_FACE('',(#130),#131,.T.);
#77=SURFACE_STYLE_FILL_AREA(#132);
#78=FACE_OUTER_BOUND('',#133,.T.);
#79=SPHERICAL_SURFACE('',#134,0.45);
#80=FACE_OUTER_BOUND('',#135,.T.);
#81=CYLINDRICAL_SURFACE('',#136,0.45);
#82=FACE_OUTER_BOUND('',#137,.T.);
#83=TOROIDAL_SURFACE('',#138,0.55,0.2);
#84=FACE_OUTER_BOUND('',#139,.T.);
#85=CYLINDRICAL_SURFACE('',#140,0.75);
#86=FACE_OUTER_BOUND('',#141,.T.);
#87=CONICAL_SURFACE('',#142,0.76,0.0996686524911685);
#88=FACE_OUTER_BOUND('',#143,.T.);
#89=CYLINDRICAL_SURFACE('',#144,0.75);
#90=FACE_OUTER_BOUND('',#145,.T.);
#91=CYLINDRICAL_SURFACE('',#146,1.0);
#92=FACE_OUTER_BOUND('',#147,.T.);
#93=CONICAL_SURFACE('',#148,0.95,0.785398163397448);
#94=FACE_OUTER_BOUND('',#149,.T.);
#95=CONICAL_SURFACE('',#150,0.35,0.785398163397448);
#96=FACE_OUTER_BOUND('',#151,.T.);
#97=CYLINDRICAL_SURFACE('',#152,0.4);
#98=FACE_OUTER_BOUND('',#153,.T.);
#99=FACE_BOUND('',#154,.T.);
#100=PLANE('',#155);
#101=FACE_OUTER_BOUND('',#156,.T.);
#102=CYLINDRICAL_SURFACE('',#157,0.4);
#103=FACE_OUTER_BOUND('',#158,.T.);
#104=CONICAL_SURFACE('',#159,0.35,0.785398163397448);
#105=FACE_OUTER_BOUND('',#160,.T.);
#106=PLANE('',#161);
#107=FACE_OUTER_BOUND('',#162,.T.);
#108=CONICAL_SURFACE('',#163,0.95,0.785398163397448);
#109=FACE_OUTER_BOUND('',#164,.T.);
#110=CYLINDRICAL_SURFACE('',#165,1.0);
#111=FACE_OUTER_BOUND('',#166,.T.);
#112=FACE_BOUND('',#167,.T.);
#113=PLANE('',#168);
#114=FACE_OUTER_BOUND('',#169,.T.);
#115=CYLINDRICAL_SURFACE('',#170,0.75);
#116=FACE_OUTER_BOUND('',#171,.T.);
#117=FACE_BOUND('',#172,.T.);
#118=PLANE('',#173);
#119=FACE_OUTER_BOUND('',#174,.T.);
#120=CONICAL_SURFACE('',#175,0.76,0.0996686524911685);
#121=FACE_OUTER_BOUND('',#176,.T.);
#122=CYLINDRICAL_SURFACE('',#177,0.75);
#123=FACE_OUTER_BOUND('',#178,.T.);
#124=TOROIDAL_SURFACE('',#179,0.55,0.2);
#125=FACE_OUTER_BOUND('',#180,.T.);
#126=FACE_BOUND('',#181,.T.);
#127=PLANE('',#182);
#128=FACE_OUTER_BOUND('',#183,.T.);
#129=CYLINDRICAL_SURFACE('',#184,0.45);
#130=FACE_OUTER_BOUND('',#185,.T.);
#131=SPHERICAL_SURFACE('',#186,0.45);
#132=FILL_AREA_STYLE('',(#187));
#133=EDGE_LOOP('',(#188,#189,#190));
#134=AXIS2_PLACEMENT_3D('',#191,#192,#193);
#135=EDGE_LOOP('',(#194,#195,#196,#197));
#136=AXIS2_PLACEMENT_3D('',#198,#199,#200);
#137=EDGE_LOOP('',(#201,#202,#203,#204));
#138=AXIS2_PLACEMENT_3D('',#205,#206,#207);
#139=EDGE_LOOP('',(#208,#209,#210,#211));
#140=AXIS2_PLACEMENT_3D('',#212,#213,#214);
#141=EDGE_LOOP('',(#215,#216,#217,#218));
#142=AXIS2_PLACEMENT_3D('',#219,#220,#221);
#143=EDGE_LOOP('',(#222,#223,#224,#225));
#144=AXIS2_PLACEMENT_3D('',#226,#227,#228);
#145=EDGE_LOOP('',(#229,#230,#231,#232));
#146=AXIS2_PLACEMENT_3D('',#233,#234,#235);
#147=EDGE_LOOP('',(#236,#237,#238,#239));
#148=AXIS2_PLACEMENT_3D('',#240,#241,#242);
#149=EDGE_LOOP('',(#243,#244,#245,#246));
#150=AXIS2_PLACEMENT_3D('',#247,#248,#249);
#151=EDGE_LOOP('',(#250,#251,#252,#253));
#152=AXIS2_PLACEMENT_3D('',#254,#255,#256);
#153=EDGE_LOOP('',(#257,#258));
#154=EDGE_LOOP('',(#259,#260));
#155=AXIS2_PLACEMENT_3D('',#261,#262,#263);
#156=EDGE_LOOP('',(#264,#265,#266,#267));
#157=AXIS2_PLACEMENT_3D('',#268,#269,#270);
#158=EDGE_LOOP('',(#271,#272,#273,#274));
#159=AXIS2_PLACEMENT_3D('',#275,#276,#277);
#160=EDGE_LOOP('',(#278,#279));
#161=AXIS2_PLACEMENT_3D('',#280,#281,#282);
#162=EDGE_LOOP('',(#283,#284,#285,#286));
#163=AXIS2_PLACEMENT_3D('',#287,#288,#289);
#164=EDGE_LOOP('',(#290,#291,#292,#293));
#165=AXIS2_PLACEMENT_3D('',#294,#295,#296);
#166=EDGE_LOOP('',(#297,#298));
#167=EDGE_LOOP('',(#299,#300));
#168=AXIS2_PLACEMENT_3D('',#301,#302,#303);
#169=EDGE_LOOP('',(#304,#305,#306,#307));
#170=AXIS2_PLACEMENT_3D('',#308,#309,#310);
#171=EDGE_LOOP('',(#311,#312));
#172=EDGE_LOOP('',(#313,#314));
#173=AXIS2_PLACEMENT_3D('',#315,#316,#317);
#174=EDGE_LOOP('',(#318,#319,#320,#321));
#175=AXIS2_PLACEMENT_3D('',#322,#323,#324);
#176=EDGE_LOOP('',(#325,#326,#327,#328));
#177=AXIS2_PLACEMENT_3D('',#329,#330,#331);
#178=EDGE_LOOP('',(#332,#333,#334,#335));
#179=AXIS2_PLACEMENT_3D('',#336,#337,#338);
#180=EDGE_LOOP('',(#339,#340));
#181=EDGE_LOOP('',(#341,#342));
#182=AXIS2_PLACEMENT_3D('',#343,#344,#345);
#183=EDGE_LOOP('',(#346,#347,#348,#349));
#184=AXIS2_PLACEMENT_3D('',#350,#351,#352);
#185=EDGE_LOOP('',(#353,#354,#355));
#186=AXIS2_PLACEMENT_3D('',#356,#357,#358);
#187=FILL_AREA_STYLE_COLOUR('',#359);
#188=ORIENTED_EDGE('',*,*,#360,.F.);
#189=ORIENTED_EDGE('',*,*,#361,.F.);
#190=ORIENTED_EDGE('',*,*,#362,.F.);
#191=CARTESIAN_POINT('',(0.0,5.05,0.0));
#192=DIRECTION('',(0.0,1.0,0.0));
#193=DIRECTION('',(1.0,0.0,0.0));
#194=ORIENTED_EDGE('',*,*,#363,.F.);
#195=ORIENTED_EDGE('',*,*,#364,.T.);
#196=ORIENTED_EDGE('',*,*,#365,.F.);
#197=ORIENTED_EDGE('',*,*,#361,.T.);
#198=CARTESIAN_POINT('',(0.0,-2.375,0.0));
#199=DIRECTION('',(0.0,-1.0,0.0));
#200=DIRECTION('',(1.0,0.0,0.0));
#201=ORIENTED_EDGE('',*,*,#366,.F.);
#202=ORIENTED_EDGE('',*,*,#367,.F.);
#203=ORIENTED_EDGE('',*,*,#368,.F.);
#204=ORIENTED_EDGE('',*,*,#369,.T.);
#205=CARTESIAN_POINT('',(0.0,3.8,0.0));
#206=DIRECTION('',(-0.0,1.0,0.0));
#207=DIRECTION('',(1.0,0.0,0.0));
#208=ORIENTED_EDGE('',*,*,#370,.F.);
#209=ORIENTED_EDGE('',*,*,#371,.F.);
#210=ORIENTED_EDGE('',*,*,#372,.F.);
#211=ORIENTED_EDGE('',*,*,#367,.T.);
#212=CARTESIAN_POINT('',(0.0,-2.375,0.0));
#213=DIRECTION('',(0.0,-1.0,0.0));
#214=DIRECTION('',(1.0,0.0,0.0));
#215=ORIENTED_EDGE('',*,*,#373,.F.);
#216=ORIENTED_EDGE('',*,*,#371,.T.);
#217=ORIENTED_EDGE('',*,*,#374,.F.);
#218=ORIENTED_EDGE('',*,*,#375,.T.);
#219=CARTESIAN_POINT('',(0.0,2.3,0.0));
#220=DIRECTION('',(-0.0,-1.0,0.0));
#221=DIRECTION('',(-1.0,0.0,0.0));
#222=ORIENTED_EDGE('',*,*,#376,.F.);
#223=ORIENTED_EDGE('',*,*,#377,.T.);
#224=ORIENTED_EDGE('',*,*,#378,.F.);
#225=ORIENTED_EDGE('',*,*,#379,.T.);
#226=CARTESIAN_POINT('',(0.0,-2.375,0.0));
#227=DIRECTION('',(0.0,-1.0,0.0));
#228=DIRECTION('',(1.0,0.0,0.0));
#229=ORIENTED_EDGE('',*,*,#380,.F.);
#230=ORIENTED_EDGE('',*,*,#381,.F.);
#231=ORIENTED_EDGE('',*,*,#382,.F.);
#232=ORIENTED_EDGE('',*,*,#383,.T.);
#233=CARTESIAN_POINT('',(0.0,-2.375,0.0));
#234=DIRECTION('',(0.0,-1.0,0.0));
#235=DIRECTION('',(1.0,0.0,0.0));
#236=ORIENTED_EDGE('',*,*,#384,.F.);
#237=ORIENTED_EDGE('',*,*,#385,.F.);
#238=ORIENTED_EDGE('',*,*,#386,.F.);
#239=ORIENTED_EDGE('',*,*,#381,.T.);
#240=CARTESIAN_POINT('',(0.0,0.05,0.0));
#241=DIRECTION('',(-0.0,1.0,-0.0));
#242=DIRECTION('',(1.0,0.0,0.0));
#243=ORIENTED_EDGE('',*,*,#387,.F.);
#244=ORIENTED_EDGE('',*,*,#388,.T.);
#245=ORIENTED_EDGE('',*,*,#389,.F.);
#246=ORIENTED_EDGE('',*,*,#390,.F.);
#247=CARTESIAN_POINT('',(0.0,-1.95,0.0));
#248=DIRECTION('',(-0.0,1.0,-0.0));
#249=DIRECTION('',(1.0,0.0,0.0));
#250=ORIENTED_EDGE('',*,*,#391,.F.);
#251=ORIENTED_EDGE('',*,*,#390,.T.);
#252=ORIENTED_EDGE('',*,*,#392,.F.);
#253=ORIENTED_EDGE('',*,*,#393,.F.);
#254=CARTESIAN_POINT('',(0.0,-2.375,0.0));
#255=DIRECTION('',(0.0,-1.0,0.0));
#256=DIRECTION('',(1.0,0.0,0.0));
#257=ORIENTED_EDGE('',*,*,#385,.T.);
#258=ORIENTED_EDGE('',*,*,#394,.T.);
#259=ORIENTED_EDGE('',*,*,#395,.T.);
#260=ORIENTED_EDGE('',*,*,#393,.T.);
#261=CARTESIAN_POINT('',(0.0,0.0,0.0));
#262=DIRECTION('',(-0.0,1.0,0.0));
#263=DIRECTION('',(1.0,0.0,0.0));
#264=ORIENTED_EDGE('',*,*,#391,.T.);
#265=ORIENTED_EDGE('',*,*,#395,.F.);
#266=ORIENTED_EDGE('',*,*,#392,.T.);
#267=ORIENTED_EDGE('',*,*,#396,.T.);
#268=CARTESIAN_POINT('',(0.0,-2.375,0.0));
#269=DIRECTION('',(0.0,-1.0,0.0));
#270=DIRECTION('',(1.0,0.0,0.0));
#271=ORIENTED_EDGE('',*,*,#387,.T.);
#272=ORIENTED_EDGE('',*,*,#396,.F.);
#273=ORIENTED_EDGE('',*,*,#389,.T.);
#274=ORIENTED_EDGE('',*,*,#397,.T.);
#275=CARTESIAN_POINT('',(0.0,-1.95,0.0));
#276=DIRECTION('',(-0.0,1.0,-0.0));
#277=DIRECTION('',(1.0,0.0,0.0));
#278=ORIENTED_EDGE('',*,*,#397,.F.);
#279=ORIENTED_EDGE('',*,*,#388,.F.);
#280=CARTESIAN_POINT('',(0.0,-2.0,0.0));
#281=DIRECTION('',(-0.0,1.0,0.0));
#282=DIRECTION('',(1.0,0.0,0.0));
#283=ORIENTED_EDGE('',*,*,#384,.T.);
#284=ORIENTED_EDGE('',*,*,#398,.T.);
#285=ORIENTED_EDGE('',*,*,#386,.T.);
#286=ORIENTED_EDGE('',*,*,#394,.F.);
#287=CARTESIAN_POINT('',(0.0,0.05,0.0));
#288=DIRECTION('',(-0.0,1.0,-0.0));
#289=DIRECTION('',(1.0,0.0,0.0));
#290=ORIENTED_EDGE('',*,*,#380,.T.);
#291=ORIENTED_EDGE('',*,*,#399,.T.);
#292=ORIENTED_EDGE('',*,*,#382,.T.);
#293=ORIENTED_EDGE('',*,*,#398,.F.);
#294=CARTESIAN_POINT('',(0.0,-2.375,0.0));
#295=DIRECTION('',(0.0,-1.0,0.0));
#296=DIRECTION('',(1.0,0.0,0.0));
#297=ORIENTED_EDGE('',*,*,#383,.F.);
#298=ORIENTED_EDGE('',*,*,#399,.F.);
#299=ORIENTED_EDGE('',*,*,#400,.F.);
#300=ORIENTED_EDGE('',*,*,#377,.F.);
#301=CARTESIAN_POINT('',(0.0,0.5,0.0));
#302=DIRECTION('',(-0.0,1.0,0.0));
#303=DIRECTION('',(1.0,0.0,0.0));
#304=ORIENTED_EDGE('',*,*,#376,.T.);
#305=ORIENTED_EDGE('',*,*,#401,.T.);
#306=ORIENTED_EDGE('',*,*,#378,.T.);
#307=ORIENTED_EDGE('',*,*,#400,.T.);
#308=CARTESIAN_POINT('',(0.0,-2.375,0.0));
#309=DIRECTION('',(0.0,-1.0,0.0));
#310=DIRECTION('',(1.0,0.0,0.0));
#311=ORIENTED_EDGE('',*,*,#375,.F.);
#312=ORIENTED_EDGE('',*,*,#402,.F.);
#313=ORIENTED_EDGE('',*,*,#379,.F.);
#314=ORIENTED_EDGE('',*,*,#401,.F.);
#315=CARTESIAN_POINT('',(0.0,2.2,0.0));
#316=DIRECTION('',(-0.0,1.0,0.0));
#317=DIRECTION('',(1.0,0.0,0.0));
#318=ORIENTED_EDGE('',*,*,#373,.T.);
#319=ORIENTED_EDGE('',*,*,#402,.T.);
#320=ORIENTED_EDGE('',*,*,#374,.T.);
#321=ORIENTED_EDGE('',*,*,#403,.T.);
#322=CARTESIAN_POINT('',(0.0,2.3,0.0));
#323=DIRECTION('',(-0.0,-1.0,0.0));
#324=DIRECTION('',(-1.0,0.0,0.0));
#325=ORIENTED_EDGE('',*,*,#370,.T.);
#326=ORIENTED_EDGE('',*,*,#404,.T.);
#327=ORIENTED_EDGE('',*,*,#372,.T.);
#328=ORIENTED_EDGE('',*,*,#403,.F.);
#329=CARTESIAN_POINT('',(0.0,-2.375,0.0));
#330=DIRECTION('',(0.0,-1.0,0.0));
#331=DIRECTION('',(1.0,0.0,0.0));
#332=ORIENTED_EDGE('',*,*,#366,.T.);
#333=ORIENTED_EDGE('',*,*,#405,.T.);
#334=ORIENTED_EDGE('',*,*,#368,.T.);
#335=ORIENTED_EDGE('',*,*,#404,.F.);
#336=CARTESIAN_POINT('',(0.0,3.8,0.0));
#337=DIRECTION('',(-0.0,1.0,0.0));
#338=DIRECTION('',(1.0,0.0,0.0));
#339=ORIENTED_EDGE('',*,*,#369,.F.);
#340=ORIENTED_EDGE('',*,*,#405,.F.);
#341=ORIENTED_EDGE('',*,*,#406,.F.);
#342=ORIENTED_EDGE('',*,*,#364,.F.);
#343=CARTESIAN_POINT('',(0.0,4.0,0.0));
#344=DIRECTION('',(-0.0,1.0,0.0));
#345=DIRECTION('',(1.0,0.0,0.0));
#346=ORIENTED_EDGE('',*,*,#363,.T.);
#347=ORIENTED_EDGE('',*,*,#407,.T.);
#348=ORIENTED_EDGE('',*,*,#365,.T.);
#349=ORIENTED_EDGE('',*,*,#406,.T.);
#350=CARTESIAN_POINT('',(0.0,-2.375,0.0));
#351=DIRECTION('',(0.0,-1.0,0.0));
#352=DIRECTION('',(1.0,0.0,0.0));
#353=ORIENTED_EDGE('',*,*,#360,.T.);
#354=ORIENTED_EDGE('',*,*,#362,.T.);
#355=ORIENTED_EDGE('',*,*,#407,.F.);
#356=CARTESIAN_POINT('',(0.0,5.05,0.0));
#357=DIRECTION('',(0.0,1.0,0.0));
#358=DIRECTION('',(1.0,0.0,0.0));
#359=COLOUR_RGB('',1.0,0.807843148708344,0.458823531866074);
#360=EDGE_CURVE('',#408,#409,#410,.T.);
#361=EDGE_CURVE('',#411,#408,#412,.T.);
#362=EDGE_CURVE('',#409,#411,#413,.T.);
#363=EDGE_CURVE('',#414,#408,#415,.T.);
#364=EDGE_CURVE('',#414,#416,#417,.T.);
#365=EDGE_CURVE('',#411,#416,#418,.T.);
#366=EDGE_CURVE('',#419,#420,#421,.T.);
#367=EDGE_CURVE('',#422,#419,#423,.T.);
#368=EDGE_CURVE('',#424,#422,#425,.T.);
#369=EDGE_CURVE('',#424,#420,#426,.T.);
#370=EDGE_CURVE('',#427,#419,#428,.T.);
#371=EDGE_CURVE('',#429,#427,#430,.T.);
#372=EDGE_CURVE('',#422,#429,#431,.T.);
#373=EDGE_CURVE('',#429,#432,#433,.T.);
#374=EDGE_CURVE('',#434,#427,#435,.T.);
#375=EDGE_CURVE('',#434,#432,#436,.T.);
#376=EDGE_CURVE('',#437,#438,#439,.T.);
#377=EDGE_CURVE('',#437,#440,#441,.T.);
#378=EDGE_CURVE('',#442,#440,#443,.T.);
#379=EDGE_CURVE('',#442,#438,#444,.T.);
#380=EDGE_CURVE('',#445,#446,#447,.T.);
#381=EDGE_CURVE('',#448,#445,#449,.T.);
#382=EDGE_CURVE('',#450,#448,#451,.T.);
#383=EDGE_CURVE('',#450,#446,#452,.T.);
#384=EDGE_CURVE('',#453,#445,#454,.T.);
#385=EDGE_CURVE('',#455,#453,#456,.T.);
#386=EDGE_CURVE('',#448,#455,#457,.T.);
#387=EDGE_CURVE('',#458,#459,#460,.T.);
#388=EDGE_CURVE('',#458,#461,#462,.T.);
#389=EDGE_CURVE('',#463,#461,#464,.T.);
#390=EDGE_CURVE('',#459,#463,#465,.T.);
#391=EDGE_CURVE('',#459,#466,#467,.T.);
#392=EDGE_CURVE('',#468,#463,#469,.T.);
#393=EDGE_CURVE('',#466,#468,#470,.T.);
#394=EDGE_CURVE('',#453,#455,#471,.T.);
#395=EDGE_CURVE('',#468,#466,#472,.T.);
#396=EDGE_CURVE('',#463,#459,#473,.T.);
#397=EDGE_CURVE('',#461,#458,#474,.T.);
#398=EDGE_CURVE('',#445,#448,#475,.T.);
#399=EDGE_CURVE('',#446,#450,#476,.T.);
#400=EDGE_CURVE('',#440,#437,#477,.T.);
#401=EDGE_CURVE('',#438,#442,#478,.T.);
#402=EDGE_CURVE('',#432,#434,#479,.T.);
#403=EDGE_CURVE('',#427,#429,#480,.T.);
#404=EDGE_CURVE('',#419,#422,#481,.T.);
#405=EDGE_CURVE('',#420,#424,#482,.T.);
#406=EDGE_CURVE('',#416,#414,#483,.T.);
#407=EDGE_CURVE('',#408,#411,#484,.T.);
#408=VERTEX_POINT('',#485);
#409=VERTEX_POINT('',#486);
#410=CIRCLE('',#487,0.45);
#411=VERTEX_POINT('',#488);
#412=CIRCLE('',#489,0.45);
#413=CIRCLE('',#490,0.45);
#414=VERTEX_POINT('',#491);
#415=LINE('',#492,#493);
#416=VERTEX_POINT('',#494);
#417=CIRCLE('',#495,0.45);
#418=LINE('',#496,#497);
#419=VERTEX_POINT('',#498);
#420=VERTEX_POINT('',#499);
#421=CIRCLE('',#500,0.2);
#422=VERTEX_POINT('',#501);
#423=CIRCLE('',#502,0.75);
#424=VERTEX_POINT('',#503);
#425=CIRCLE('',#504,0.2);
#426=CIRCLE('',#505,0.55);
#427=VERTEX_POINT('',#506);
#428=LINE('',#507,#508);
#429=VERTEX_POINT('',#509);
#430=CIRCLE('',#510,0.75);
#431=LINE('',#511,#512);
#432=VERTEX_POINT('',#513);
#433=LINE('',#514,#515);
#434=VERTEX_POINT('',#516);
#435=LINE('',#517,#518);
#436=CIRCLE('',#519,0.77);
#437=VERTEX_POINT('',#520);
#438=VERTEX_POINT('',#521);
#439=LINE('',#522,#523);
#440=VERTEX_POINT('',#524);
#441=CIRCLE('',#525,0.75);
#442=VERTEX_POINT('',#526);
#443=LINE('',#527,#528);
#444=CIRCLE('',#529,0.75);
#445=VERTEX_POINT('',#530);
#446=VERTEX_POINT('',#531);
#447=LINE('',#532,#533);
#448=VERTEX_POINT('',#534);
#449=CIRCLE('',#535,1.0);
#450=VERTEX_POINT('',#536);
#451=LINE('',#537,#538);
#452=CIRCLE('',#539,1.0);
#453=VERTEX_POINT('',#540);
#454=LINE('',#541,#542);
#455=VERTEX_POINT('',#543);
#456=CIRCLE('',#544,0.9);
#457=LINE('',#545,#546);
#458=VERTEX_POINT('',#547);
#459=VERTEX_POINT('',#548);
#460=LINE('',#549,#550);
#461=VERTEX_POINT('',#551);
#462=CIRCLE('',#552,0.3);
#463=VERTEX_POINT('',#553);
#464=LINE('',#554,#555);
#465=CIRCLE('',#556,0.4);
#466=VERTEX_POINT('',#557);
#467=LINE('',#558,#559);
#468=VERTEX_POINT('',#560);
#469=LINE('',#561,#562);
#470=CIRCLE('',#563,0.4);
#471=CIRCLE('',#564,0.9);
#472=CIRCLE('',#565,0.4);
#473=CIRCLE('',#566,0.4);
#474=CIRCLE('',#567,0.3);
#475=CIRCLE('',#568,1.0);
#476=CIRCLE('',#569,1.0);
#477=CIRCLE('',#570,0.75);
#478=CIRCLE('',#571,0.75);
#479=CIRCLE('',#572,0.77);
#480=CIRCLE('',#573,0.75);
#481=CIRCLE('',#574,0.75);
#482=CIRCLE('',#575,0.55);
#483=CIRCLE('',#576,0.45);
#484=CIRCLE('',#577,0.45);
#485=CARTESIAN_POINT('',(0.45,5.05,-5.5107285922007E-17));
#486=CARTESIAN_POINT('',(-2.75545529808155E-17,5.5,3.37445951098918E-33));
#487=AXIS2_PLACEMENT_3D('',#578,#579,#580);
#488=CARTESIAN_POINT('',(-0.45,5.05,0.0));
#489=AXIS2_PLACEMENT_3D('',#581,#582,#583);
#490=AXIS2_PLACEMENT_3D('',#584,#585,#586);
#491=CARTESIAN_POINT('',(0.45,4.0,-5.5107285922007E-17));
#492=CARTESIAN_POINT('',(0.45,4.525,-5.5107285922007E-17));
#493=VECTOR('',#587,1.0);
#494=CARTESIAN_POINT('',(-0.45,4.0,0.0));
#495=AXIS2_PLACEMENT_3D('',#588,#589,#590);
#496=CARTESIAN_POINT('',(-0.45,-2.375,5.51091059616309E-17));
#497=VECTOR('',#591,0.45);
#498=CARTESIAN_POINT('',(0.75,3.8,-9.18454765366783E-17));
#499=CARTESIAN_POINT('',(0.55,4.0,6.73533494602308E-17));
#500=AXIS2_PLACEMENT_3D('',#592,#593,#594);
#501=CARTESIAN_POINT('',(-0.75,3.8,0.0));
#502=AXIS2_PLACEMENT_3D('',#595,#596,#597);
#503=CARTESIAN_POINT('',(-0.55,4.0,0.0));
#504=AXIS2_PLACEMENT_3D('',#598,#599,#600);
#505=AXIS2_PLACEMENT_3D('',#601,#602,#603);
#506=CARTESIAN_POINT('',(0.75,2.4,9.18485099360514E-17));
#507=CARTESIAN_POINT('',(0.75,3.1,-9.18454765366783E-17));
#508=VECTOR('',#604,1.0);
#509=CARTESIAN_POINT('',(-0.75,2.4,0.0));
#510=AXIS2_PLACEMENT_3D('',#605,#606,#607);
#511=CARTESIAN_POINT('',(-0.75,-2.375,9.18485099360515E-17));
#512=VECTOR('',#608,0.75);
#513=CARTESIAN_POINT('',(-0.77,2.2,-9.42946892443231E-17));
#514=CARTESIAN_POINT('',(-0.76,2.3,-9.30700828905007E-17));
#515=VECTOR('',#609,1.0);
#516=CARTESIAN_POINT('',(0.770000000000001,2.2,9.42978035343463E-17));
#517=CARTESIAN_POINT('',(0.76,2.3,9.30731567351989E-17));
#518=VECTOR('',#610,0.76);
#519=AXIS2_PLACEMENT_3D('',#611,#612,#613);
#520=CARTESIAN_POINT('',(0.75,0.5,-9.18454765366783E-17));
#521=CARTESIAN_POINT('',(0.75,2.2,-9.18454765366783E-17));
#522=CARTESIAN_POINT('',(0.75,1.35,-9.18454765366783E-17));
#523=VECTOR('',#614,1.0);
#524=CARTESIAN_POINT('',(-0.75,0.5,0.0));
#525=AXIS2_PLACEMENT_3D('',#615,#616,#617);
#526=CARTESIAN_POINT('',(-0.75,2.2,0.0));
#527=CARTESIAN_POINT('',(-0.75,-2.375,9.18485099360515E-17));
#528=VECTOR('',#618,0.75);
#529=AXIS2_PLACEMENT_3D('',#619,#620,#621);
#530=CARTESIAN_POINT('',(1.0,0.1,-1.22460635382238E-16));
#531=CARTESIAN_POINT('',(1.0,0.5,-1.22460635382238E-16));
#532=CARTESIAN_POINT('',(1.0,0.3,-1.22460635382238E-16));
#533=VECTOR('',#622,1.0);
#534=CARTESIAN_POINT('',(-1.0,0.1,0.0));
#535=AXIS2_PLACEMENT_3D('',#623,#624,#625);
#536=CARTESIAN_POINT('',(-1.0,0.5,0.0));
#537=CARTESIAN_POINT('',(-1.0,-2.375,1.22464679914735E-16));
#538=VECTOR('',#626,1.0);
#539=AXIS2_PLACEMENT_3D('',#627,#628,#629);
#540=CARTESIAN_POINT('',(0.9,0.0,-1.10214571844014E-16));
#541=CARTESIAN_POINT('',(0.95,0.05,-1.16337603613126E-16));
#542=VECTOR('',#630,1.0);
#543=CARTESIAN_POINT('',(-0.9,0.0,0.0));
#544=AXIS2_PLACEMENT_3D('',#631,#632,#633);
#545=CARTESIAN_POINT('',(-0.95,0.05,1.16341445918999E-16));
#546=VECTOR('',#634,0.95);
#547=CARTESIAN_POINT('',(0.3,-2.0,-3.67381906146713E-17));
#548=CARTESIAN_POINT('',(0.4,-1.9,-4.89842541528951E-17));
#549=CARTESIAN_POINT('',(0.35,-1.95,-4.28612223837832E-17));
#550=VECTOR('',#635,1.0);
#551=CARTESIAN_POINT('',(-0.3,-2.0,0.0));
#552=AXIS2_PLACEMENT_3D('',#636,#637,#638);
#553=CARTESIAN_POINT('',(-0.4,-1.9,0.0));
#554=CARTESIAN_POINT('',(-0.35,-1.95,4.28626379701574E-17));
#555=VECTOR('',#639,0.35);
#556=AXIS2_PLACEMENT_3D('',#640,#641,#642);
#557=CARTESIAN_POINT('',(0.4,0.0,-4.89842541528951E-17));
#558=CARTESIAN_POINT('',(0.4,-0.95,-4.89842541528951E-17));
#559=VECTOR('',#643,1.0);
#560=CARTESIAN_POINT('',(-0.4,0.0,0.0));
#561=CARTESIAN_POINT('',(-0.4,-2.375,4.89858719658941E-17));
#562=VECTOR('',#644,0.4);
#563=AXIS2_PLACEMENT_3D('',#645,#646,#647);
#564=AXIS2_PLACEMENT_3D('',#648,#649,#650);
#565=AXIS2_PLACEMENT_3D('',#651,#652,#653);
#566=AXIS2_PLACEMENT_3D('',#654,#655,#656);
#567=AXIS2_PLACEMENT_3D('',#657,#658,#659);
#568=AXIS2_PLACEMENT_3D('',#660,#661,#662);
#569=AXIS2_PLACEMENT_3D('',#663,#664,#665);
#570=AXIS2_PLACEMENT_3D('',#666,#667,#668);
#571=AXIS2_PLACEMENT_3D('',#669,#670,#671);
#572=AXIS2_PLACEMENT_3D('',#672,#673,#674);
#573=AXIS2_PLACEMENT_3D('',#675,#676,#677);
#574=AXIS2_PLACEMENT_3D('',#678,#679,#680);
#575=AXIS2_PLACEMENT_3D('',#681,#682,#683);
#576=AXIS2_PLACEMENT_3D('',#684,#685,#686);
#577=AXIS2_PLACEMENT_3D('',#687,#688,#689);
#578=CARTESIAN_POINT('',(0.0,5.05,0.0));
#579=DIRECTION('',(-1.22460635382238E-16,7.49855125712042E-33,1.0));
#580=DIRECTION('',(0.0,1.0,-7.49855125712042E-33));
#581=CARTESIAN_POINT('',(0.0,5.05,0.0));
#582=DIRECTION('',(0.0,-1.0,0.0));
#583=DIRECTION('',(1.0,0.0,0.0));
#584=CARTESIAN_POINT('',(0.0,5.05,0.0));
#585=DIRECTION('',(1.22464679914735E-16,0.0,1.0));
#586=DIRECTION('',(-1.0,0.0,1.22464679914735E-16));
#587=DIRECTION('',(-0.0,1.0,-0.0));
#588=CARTESIAN_POINT('',(0.0,4.0,0.0));
#589=DIRECTION('',(-0.0,1.0,0.0));
#590=DIRECTION('',(1.0,0.0,0.0));
#591=DIRECTION('',(0.0,-1.0,0.0));
#592=CARTESIAN_POINT('',(0.55,3.8,6.73533494602308E-17));
#593=DIRECTION('',(-1.22460635382238E-16,-0.0,1.0));
#594=DIRECTION('',(1.0,0.0,1.22460635382238E-16));
#595=CARTESIAN_POINT('',(0.0,3.8,0.0));
#596=DIRECTION('',(0.0,-1.0,0.0));
#597=DIRECTION('',(1.0,0.0,0.0));
#598=CARTESIAN_POINT('',(-0.55,3.8,6.73555739531044E-17));
#599=DIRECTION('',(1.22464679914735E-16,0.0,1.0));
#600=DIRECTION('',(-1.0,0.0,1.22464679914735E-16));
#601=CARTESIAN_POINT('',(0.0,4.0,0.0));
#602=DIRECTION('',(0.0,-1.0,0.0));
#603=DIRECTION('',(1.0,0.0,0.0));
#604=DIRECTION('',(-0.0,1.0,-0.0));
#605=CARTESIAN_POINT('',(0.0,2.4,0.0));
#606=DIRECTION('',(0.0,-1.0,0.0));
#607=DIRECTION('',(1.0,0.0,0.0));
#608=DIRECTION('',(0.0,-1.0,0.0));
#609=DIRECTION('',(-0.0995037190210054,-0.995037190209988,-1.2185288654208E-17));
#610=DIRECTION('',(-0.0995037190210051,0.995037190209988,-1.21856911002332E-17));
#611=CARTESIAN_POINT('',(0.0,2.2,0.0));
#612=DIRECTION('',(-0.0,1.0,0.0));
#613=DIRECTION('',(1.0,0.0,0.0));
#614=DIRECTION('',(-0.0,1.0,-0.0));
#615=CARTESIAN_POINT('',(0.0,0.5,0.0));
#616=DIRECTION('',(-0.0,1.0,0.0));
#617=DIRECTION('',(1.0,0.0,0.0));
#618=DIRECTION('',(0.0,-1.0,0.0));
#619=CARTESIAN_POINT('',(0.0,2.2,0.0));
#620=DIRECTION('',(0.0,-1.0,0.0));
#621=DIRECTION('',(1.0,0.0,0.0));
#622=DIRECTION('',(-0.0,1.0,-0.0));
#623=CARTESIAN_POINT('',(0.0,0.1,0.0));
#624=DIRECTION('',(0.0,-1.0,0.0));
#625=DIRECTION('',(1.0,0.0,0.0));
#626=DIRECTION('',(0.0,-1.0,0.0));
#627=CARTESIAN_POINT('',(0.0,0.5,0.0));
#628=DIRECTION('',(0.0,-1.0,0.0));
#629=DIRECTION('',(1.0,0.0,0.0));
#630=DIRECTION('',(0.707106781186547,0.707106781186548,-8.65927457071935E-17));
#631=CARTESIAN_POINT('',(0.0,0.0,0.0));
#632=DIRECTION('',(0.0,-1.0,0.0));
#633=DIRECTION('',(1.0,0.0,0.0));
#634=DIRECTION('',(0.707106781186548,-0.707106781186548,-8.65956056235495E-17));
#635=DIRECTION('',(0.707106781186547,0.707106781186548,-8.65927457071935E-17));
#636=CARTESIAN_POINT('',(0.0,-2.0,0.0));
#637=DIRECTION('',(-0.0,1.0,0.0));
#638=DIRECTION('',(1.0,0.0,0.0));
#639=DIRECTION('',(0.707106781186548,-0.707106781186548,-8.65956056235494E-17));
#640=CARTESIAN_POINT('',(0.0,-1.9,0.0));
#641=DIRECTION('',(-0.0,1.0,0.0));
#642=DIRECTION('',(1.0,0.0,0.0));
#643=DIRECTION('',(-0.0,1.0,-0.0));
#644=DIRECTION('',(0.0,-1.0,0.0));
#645=CARTESIAN_POINT('',(0.0,0.0,0.0));
#646=DIRECTION('',(-0.0,1.0,0.0));
#647=DIRECTION('',(1.0,0.0,0.0));
#648=CARTESIAN_POINT('',(0.0,0.0,0.0));
#649=DIRECTION('',(0.0,-1.0,0.0));
#650=DIRECTION('',(1.0,0.0,0.0));
#651=CARTESIAN_POINT('',(0.0,0.0,0.0));
#652=DIRECTION('',(-0.0,1.0,0.0));
#653=DIRECTION('',(1.0,0.0,0.0));
#654=CARTESIAN_POINT('',(0.0,-1.9,0.0));
#655=DIRECTION('',(-0.0,1.0,0.0));
#656=DIRECTION('',(1.0,0.0,0.0));
#657=CARTESIAN_POINT('',(0.0,-2.0,0.0));
#658=DIRECTION('',(-0.0,1.0,0.0));
#659=DIRECTION('',(1.0,0.0,0.0));
#660=CARTESIAN_POINT('',(0.0,0.1,0.0));
#661=DIRECTION('',(0.0,-1.0,0.0));
#662=DIRECTION('',(1.0,0.0,0.0));
#663=CARTESIAN_POINT('',(0.0,0.5,0.0));
#664=DIRECTION('',(0.0,-1.0,0.0));
#665=DIRECTION('',(1.0,0.0,0.0));
#666=CARTESIAN_POINT('',(0.0,0.5,0.0));
#667=DIRECTION('',(-0.0,1.0,0.0));
#668=DIRECTION('',(1.0,0.0,0.0));
#669=CARTESIAN_POINT('',(0.0,2.2,0.0));
#670=DIRECTION('',(0.0,-1.0,0.0));
#671=DIRECTION('',(1.0,0.0,0.0));
#672=CARTESIAN_POINT('',(0.0,2.2,0.0));
#673=DIRECTION('',(-0.0,1.0,0.0));
#674=DIRECTION('',(1.0,0.0,0.0));
#675=CARTESIAN_POINT('',(0.0,2.4,0.0));
#676=DIRECTION('',(0.0,-1.0,0.0));
#677=DIRECTION('',(1.0,0.0,0.0));
#678=CARTESIAN_POINT('',(0.0,3.8,0.0));
#679=DIRECTION('',(0.0,-1.0,0.0));
#680=DIRECTION('',(1.0,0.0,0.0));
#681=CARTESIAN_POINT('',(0.0,4.0,0.0));
#682=DIRECTION('',(0.0,-1.0,0.0));
#683=DIRECTION('',(1.0,0.0,0.0));
#684=CARTESIAN_POINT('',(0.0,4.0,0.0));
#685=DIRECTION('',(-0.0,1.0,0.0));
#686=DIRECTION('',(1.0,0.0,0.0));
#687=CARTESIAN_POINT('',(0.0,5.05,0.0));
#688=DIRECTION('',(0.0,-1.0,0.0));
#689=DIRECTION('',(1.0,0.0,0.0));
ENDSEC;
END-ISO-10303-21;
